<svg width="512" height="512" viewBox="0 0 512 512" fill="none" xmlns="http://www.w3.org/2000/svg">
<rect width="512" height="512" rx="65" fill="white"/>
<path d="M109.4 375.664C97.9653 375.664 89.2613 372.763 83.288 366.96C77.4853 361.328 74.584 352.88 74.584 341.616V276.592C74.584 271.984 73.56 268.656 71.512 266.608C69.6347 264.56 66.8187 263.536 63.064 263.536H54.36V248.176H63.064C66.8187 248.176 69.6347 247.152 71.512 245.104C73.56 243.056 74.584 239.728 74.584 235.12V170.096C74.584 158.661 77.4853 150.128 83.288 144.496C89.2613 138.864 97.9653 136.048 109.4 136.048H119.128V151.152H112.216C105.731 151.152 100.867 152.944 97.624 156.528C94.3813 160.112 92.76 165.147 92.76 171.632V234.864C92.76 239.984 92.1627 243.995 90.968 246.896C89.7733 249.797 87.896 252.016 85.336 253.552C82.9467 255.088 79.7893 256.283 75.864 257.136V254.576C79.7893 255.259 82.9467 256.453 85.336 258.16C87.896 259.696 89.7733 261.915 90.968 264.816C92.1627 267.717 92.76 271.728 92.76 276.848V340.08C92.76 346.565 94.3813 351.6 97.624 355.184C100.867 358.768 105.731 360.56 112.216 360.56H119.128V375.664H109.4Z" fill="black"/>
<path d="M401.6 375.664C413.035 375.664 421.739 372.763 427.712 366.96C433.515 361.328 436.416 352.88 436.416 341.616L436.416 276.592C436.416 271.984 437.44 268.656 439.488 266.608C441.365 264.56 444.181 263.536 447.936 263.536L456.64 263.536L456.64 248.176L447.936 248.176C444.181 248.176 441.365 247.152 439.488 245.104C437.44 243.056 436.416 239.728 436.416 235.12L436.416 170.096C436.416 158.661 433.515 150.128 427.712 144.496C421.739 138.864 413.035 136.048 401.6 136.048L391.872 136.048L391.872 151.152L398.784 151.152C405.269 151.152 410.133 152.944 413.376 156.528C416.619 160.112 418.24 165.147 418.24 171.632L418.24 234.864C418.24 239.984 418.837 243.995 420.032 246.896C421.227 249.797 423.104 252.016 425.664 253.552C428.053 255.088 431.211 256.283 435.136 257.136L435.136 254.576C431.211 255.259 428.053 256.453 425.664 258.16C423.104 259.696 421.227 261.915 420.032 264.816C418.837 267.717 418.24 271.728 418.24 276.848L418.24 340.08C418.24 346.565 416.619 351.6 413.376 355.184C410.133 358.768 405.269 360.56 398.784 360.56L391.872 360.56L391.872 375.664L401.6 375.664Z" fill="black"/>
<path d="M158.691 344V236.25H136.441V216.5H158.691V197.75C158.691 186.417 161.858 177.583 168.191 171.25C174.691 164.75 183.608 161.5 194.941 161.5H226.441V181.25H199.441C193.775 181.25 189.441 182.833 186.441 186C183.441 189.167 181.941 193.583 181.941 199.25V216.5H221.441V236.25H181.941V344H158.691ZM295.391 347C285.724 347 276.891 345.5 268.891 342.5C260.891 339.333 253.974 334.75 248.141 328.75C242.307 322.75 237.724 315.583 234.391 307.25C231.224 298.75 229.641 289.25 229.641 278.75C229.641 265.417 232.307 253.917 237.641 244.25C243.141 234.417 250.557 226.833 259.891 221.5C269.391 216.167 279.974 213.5 291.641 213.5C298.141 213.5 304.307 214.583 310.141 216.75C316.141 218.917 321.474 221.917 326.141 225.75C330.807 229.583 334.474 234.083 337.141 239.25H337.641V161.5H360.641V279.5C360.641 293.667 357.724 305.833 351.891 316C346.224 326 338.474 333.667 328.641 339C318.974 344.333 307.891 347 295.391 347ZM295.391 327.25C303.224 327.25 310.307 325.333 316.641 321.5C322.974 317.667 327.974 312.25 331.641 305.25C335.474 298.25 337.391 290 337.391 280.5C337.391 270.833 335.474 262.5 331.641 255.5C327.974 248.333 322.974 242.833 316.641 239C310.307 235.167 303.141 233.25 295.141 233.25C287.307 233.25 280.141 235.25 273.641 239.25C267.307 243.25 262.224 248.75 258.391 255.75C254.724 262.75 252.891 270.917 252.891 280.25C252.891 289.917 254.807 298.25 258.641 305.25C262.474 312.25 267.557 317.667 273.891 321.5C280.391 325.333 287.557 327.25 295.391 327.25Z" fill="black"/>
<g filter="url(#filter0_d_110_13)">
<path d="M185.7 402.438C182.785 400.917 178.301 397.18 171.573 393.043C167.779 390.814 159.292 387.165 156.118 384.732C153.996 383.341 152.552 381.127 152.136 378.625C151.229 373.92 153.96 369.275 158.513 367.781C162.17 366.922 165.998 367.156 169.523 368.453C171.945 369.273 174.294 370.294 176.547 371.504C178.196 372.335 178.698 372.74 180.568 373.708C182.437 374.676 183.914 375.824 182.304 373.865C180.346 370.797 177.041 365.649 173.677 361.242C171.115 357.894 170.649 357.394 168.573 354.935C166.497 352.475 164.958 350.325 162.637 347.502C160.414 344.702 158.34 341.787 156.423 338.77C153.712 335.028 152.357 330.475 152.58 325.861C153.886 322.658 156.986 320.553 160.444 320.52C164.308 321.332 167.824 323.326 170.505 326.225C174.143 329.638 177.307 333.523 179.911 337.778C183.959 343.855 190.369 352.498 191.334 354.435C190.225 352.009 187.427 347.105 186.837 344.6C186.197 342 186.952 339.254 188.831 337.346C190.509 335.854 192.513 334.774 194.683 334.194C196.91 333.689 199.245 334.035 201.23 335.163C204.499 338.293 207.198 341.968 209.209 346.022C207.737 342.339 206.722 338.49 206.187 334.561C206.577 332.516 207.668 330.671 209.272 329.345C211.258 327.957 213.479 326.941 215.828 326.346C217.877 326.128 219.945 326.537 221.756 327.52C224.734 330.362 227.254 333.649 229.225 337.264C229.645 338.182 228.514 334.497 228.907 331.543C228.639 328.975 229.761 326.459 231.851 324.942C233.941 323.426 236.681 323.14 239.039 324.192C241.397 325.244 243.015 327.473 243.283 330.041C245.232 334.303 245.143 334.106 246.462 336.991C247.781 339.876 248.951 342.433 250.06 344.859C251.576 348.805 252.794 352.859 253.704 356.987C254.084 360.833 253.938 364.714 253.271 368.521C251.707 373.517 250.907 378.721 250.897 383.957C251.386 386.331 252.174 388.635 253.24 390.813C254.165 392.853 255.357 394.76 256.785 396.485C254.234 397.994 251.531 399.231 248.721 400.173C245.984 400.949 240.498 397.275 238.926 396.091C238.118 395.439 237.011 395.3 236.066 395.732C235.122 396.163 234.503 397.092 234.468 398.13C234.165 401.281 233.021 407.274 230.912 408.556C226.759 411.089 217.471 414.703 210.325 417.971C210.325 417.971 208.506 410.875 204.739 409.744C200.971 408.613 196.958 407.119 194.086 406.213L185.7 402.438Z" fill="white"/>
<path fill-rule="evenodd" clip-rule="evenodd" d="M185.7 402.438C182.785 400.917 178.301 397.18 171.573 393.043C167.779 390.814 159.292 387.165 156.118 384.732C153.996 383.341 152.552 381.127 152.136 378.625C151.229 373.92 153.96 369.275 158.513 367.781C162.17 366.922 165.998 367.156 169.523 368.453C171.945 369.273 174.294 370.294 176.547 371.504C178.196 372.335 178.698 372.74 180.568 373.708C182.437 374.676 183.914 375.824 182.304 373.865C180.346 370.797 177.041 365.649 173.677 361.242C171.115 357.894 170.649 357.394 168.573 354.935C166.497 352.475 164.958 350.325 162.637 347.502C160.414 344.702 158.34 341.787 156.423 338.77C153.712 335.028 152.357 330.475 152.58 325.861C153.886 322.658 156.986 320.553 160.444 320.52C164.308 321.332 167.824 323.326 170.505 326.225C174.143 329.638 177.307 333.523 179.911 337.778C183.959 343.855 190.369 352.498 191.334 354.435C190.225 352.009 187.427 347.105 186.837 344.6C186.197 342 186.952 339.254 188.831 337.346C190.509 335.854 192.513 334.774 194.683 334.194C196.91 333.689 199.245 334.035 201.23 335.163C204.499 338.293 207.198 341.968 209.209 346.022C207.737 342.339 206.722 338.49 206.187 334.561C206.577 332.516 207.668 330.671 209.272 329.345C211.258 327.957 213.479 326.941 215.828 326.346C217.877 326.128 219.945 326.537 221.756 327.52C224.734 330.362 227.254 333.649 229.225 337.264C229.645 338.182 228.514 334.497 228.907 331.543C228.639 328.975 229.761 326.459 231.851 324.942C233.941 323.426 236.681 323.14 239.039 324.192C241.397 325.244 243.015 327.473 243.283 330.041C245.232 334.303 245.143 334.106 246.462 336.991C247.781 339.876 248.951 342.433 250.06 344.859C251.576 348.805 252.794 352.859 253.704 356.987C254.084 360.833 253.938 364.714 253.271 368.521C251.707 373.517 250.907 378.721 250.897 383.957C251.386 386.331 252.174 388.635 253.24 390.813C254.165 392.853 255.357 394.76 256.785 396.485C254.234 397.994 251.531 399.231 248.721 400.173C245.984 400.949 240.498 397.275 238.926 396.091C238.118 395.439 237.011 395.3 236.066 395.732C235.122 396.163 234.503 397.092 234.468 398.13C234.165 401.281 233.021 407.274 230.912 408.556C226.759 411.089 217.471 414.703 210.325 417.971C210.325 417.971 208.506 410.875 204.739 409.744C200.971 408.613 196.958 407.119 194.086 406.213L185.7 402.438Z" stroke="black" stroke-width="5" stroke-linecap="round" stroke-linejoin="round"/>
<path d="M242.936 380.589L232.586 357.958C231.966 356.603 230.363 356.008 229.006 356.629C227.648 357.25 227.049 358.852 227.669 360.207L238.019 382.838C238.639 384.193 240.242 384.787 241.599 384.166C242.957 383.545 243.556 381.944 242.936 380.589Z" fill="black"/>
<path d="M229.951 386.518L219.464 363.935C218.838 362.587 217.233 362.004 215.879 362.633C214.524 363.262 213.934 364.864 214.56 366.212L225.047 388.795C225.672 390.143 227.278 390.726 228.632 390.097C229.986 389.468 230.577 387.866 229.951 386.518Z" fill="black"/>
<path d="M201.458 372.233L211.923 394.769C212.555 396.13 214.165 396.723 215.519 396.094C216.874 395.465 217.459 393.852 216.827 392.491L206.362 369.955C205.73 368.594 204.12 368.001 202.766 368.63C201.411 369.259 200.826 370.872 201.458 372.233Z" fill="black"/>
</g>
<defs>
<filter id="filter0_d_110_13" x="148.662" y="318.021" width="111.423" height="104.251" filterUnits="userSpaceOnUse" color-interpolation-filters="sRGB">
<feFlood flood-opacity="0" result="BackgroundImageFix"/>
<feColorMatrix in="SourceAlpha" type="matrix" values="0 0 0 0 0 0 0 0 0 0 0 0 0 0 0 0 0 0 127 0" result="hardAlpha"/>
<feOffset dy="1"/>
<feGaussianBlur stdDeviation="0.4"/>
<feColorMatrix type="matrix" values="0 0 0 0 0 0 0 0 0 0 0 0 0 0 0 0 0 0 0.5 0"/>
<feBlend mode="normal" in2="BackgroundImageFix" result="effect1_dropShadow_110_13"/>
<feBlend mode="normal" in="SourceGraphic" in2="effect1_dropShadow_110_13" result="shape"/>
</filter>
</defs>
</svg>
