<svg width="433" height="356" viewBox="0 0 433 356" fill="none" xmlns="http://www.w3.org/2000/svg">
<path d="M70.4 297.664C58.9653 297.664 50.2613 294.763 44.288 288.96C38.4853 283.328 35.584 274.88 35.584 263.616V198.592C35.584 193.984 34.56 190.656 32.512 188.608C30.6347 186.56 27.8187 185.536 24.064 185.536H15.36V170.176H24.064C27.8187 170.176 30.6347 169.152 32.512 167.104C34.56 165.056 35.584 161.728 35.584 157.12V92.096C35.584 80.6613 38.4853 72.128 44.288 66.496C50.2613 60.864 58.9653 58.048 70.4 58.048H80.128V73.152H73.216C66.7307 73.152 61.8667 74.944 58.624 78.528C55.3813 82.112 53.76 87.1467 53.76 93.632V156.864C53.76 161.984 53.1627 165.995 51.968 168.896C50.7733 171.797 48.896 174.016 46.336 175.552C43.9467 177.088 40.7893 178.283 36.864 179.136V176.576C40.7893 177.259 43.9467 178.453 46.336 180.16C48.896 181.696 50.7733 183.915 51.968 186.816C53.1627 189.717 53.76 193.728 53.76 198.848V262.08C53.76 268.565 55.3813 273.6 58.624 277.184C61.8667 280.768 66.7307 282.56 73.216 282.56H80.128V297.664H70.4Z" fill="white"/>
<path d="M362.6 297.664C374.035 297.664 382.739 294.763 388.712 288.96C394.515 283.328 397.416 274.88 397.416 263.616L397.416 198.592C397.416 193.984 398.44 190.656 400.488 188.608C402.365 186.56 405.181 185.536 408.936 185.536L417.64 185.536L417.64 170.176L408.936 170.176C405.181 170.176 402.365 169.152 400.488 167.104C398.44 165.056 397.416 161.728 397.416 157.12L397.416 92.096C397.416 80.6613 394.515 72.128 388.712 66.496C382.739 60.864 374.035 58.048 362.6 58.048L352.872 58.048L352.872 73.152L359.784 73.152C366.269 73.152 371.133 74.944 374.376 78.528C377.619 82.112 379.24 87.1467 379.24 93.632L379.24 156.864C379.24 161.984 379.837 165.995 381.032 168.896C382.227 171.797 384.104 174.016 386.664 175.552C389.053 177.088 392.211 178.283 396.136 179.136L396.136 176.576C392.211 177.259 389.053 178.453 386.664 180.16C384.104 181.696 382.227 183.915 381.032 186.816C379.837 189.717 379.24 193.728 379.24 198.848L379.24 262.08C379.24 268.565 377.619 273.6 374.376 277.184C371.133 280.768 366.269 282.56 359.784 282.56L352.872 282.56L352.872 297.664L362.6 297.664Z" fill="white"/>
<mask id="mask0_110_50" style="mask-type:alpha" maskUnits="userSpaceOnUse" x="94" y="75" width="238" height="197">
<path d="M94.5 75H331.5V230H94.5V75Z" fill="#D9D9D9"/>
<path d="M329 150V272H222V150L329 150Z" fill="#D9D9D9"/>
<path d="M143 249C135.895 238.117 130.273 234.16 119 230H143V249Z" fill="#D9D9D9"/>
<path d="M222 230V261C216.362 242.198 210.838 235.112 195.5 230H222Z" fill="#D9D9D9"/>
</mask>
<g mask="url(#mask0_110_50)">
<path d="M119.691 266V158.25H97.4414V138.5H119.691V119.75C119.691 108.417 122.858 99.5833 129.191 93.25C135.691 86.75 144.608 83.5 155.941 83.5H187.441V103.25H160.441C154.775 103.25 150.441 104.833 147.441 108C144.441 111.167 142.941 115.583 142.941 121.25V138.5H182.441V158.25H142.941V266H119.691ZM256.391 269C246.724 269 237.891 267.5 229.891 264.5C221.891 261.333 214.974 256.75 209.141 250.75C203.307 244.75 198.724 237.583 195.391 229.25C192.224 220.75 190.641 211.25 190.641 200.75C190.641 187.417 193.307 175.917 198.641 166.25C204.141 156.417 211.557 148.833 220.891 143.5C230.391 138.167 240.974 135.5 252.641 135.5C259.141 135.5 265.307 136.583 271.141 138.75C277.141 140.917 282.474 143.917 287.141 147.75C291.807 151.583 295.474 156.083 298.141 161.25H298.641V83.5H321.641V201.5C321.641 215.667 318.724 227.833 312.891 238C307.224 248 299.474 255.667 289.641 261C279.974 266.333 268.891 269 256.391 269ZM256.391 249.25C264.224 249.25 271.307 247.333 277.641 243.5C283.974 239.667 288.974 234.25 292.641 227.25C296.474 220.25 298.391 212 298.391 202.5C298.391 192.833 296.474 184.5 292.641 177.5C288.974 170.333 283.974 164.833 277.641 161C271.307 157.167 264.141 155.25 256.141 155.25C248.307 155.25 241.141 157.25 234.641 161.25C228.307 165.25 223.224 170.75 219.391 177.75C215.724 184.75 213.891 192.917 213.891 202.25C213.891 211.917 215.807 220.25 219.641 227.25C223.474 234.25 228.557 239.667 234.891 243.5C241.391 247.333 248.557 249.25 256.391 249.25Z" fill="white"/>
</g>
<path d="M146.7 324.438C143.785 322.917 139.301 319.18 132.573 315.043C128.779 312.814 120.292 309.165 117.118 306.732C114.996 305.341 113.552 303.127 113.136 300.625C112.229 295.92 114.96 291.275 119.513 289.781C123.17 288.922 126.998 289.156 130.523 290.453C132.945 291.273 135.294 292.294 137.547 293.504C139.196 294.335 139.698 294.74 141.568 295.708C143.437 296.676 144.914 297.824 143.304 295.865C141.346 292.797 138.041 287.649 134.677 283.242C132.115 279.894 131.649 279.394 129.573 276.935C127.497 274.475 125.958 272.325 123.637 269.502C121.414 266.702 119.34 263.787 117.423 260.77C114.712 257.028 113.357 252.475 113.58 247.861C114.886 244.658 117.986 242.553 121.444 242.52C125.308 243.332 128.824 245.326 131.505 248.225C135.143 251.638 138.307 255.523 140.911 259.778C144.959 265.855 151.369 274.498 152.334 276.435C151.225 274.009 148.427 269.105 147.837 266.6C147.197 264 147.952 261.254 149.831 259.346C151.509 257.854 153.513 256.774 155.683 256.194C157.91 255.689 160.245 256.035 162.23 257.163C165.499 260.293 168.198 263.968 170.209 268.022C168.737 264.339 167.722 260.49 167.187 256.561C167.577 254.516 168.668 252.671 170.272 251.345C172.258 249.957 174.479 248.941 176.828 248.346C178.877 248.128 180.945 248.537 182.756 249.52C185.734 252.362 188.254 255.649 190.225 259.264C190.645 260.182 189.514 256.497 189.907 253.543C189.639 250.975 190.761 248.459 192.851 246.942C194.941 245.426 197.681 245.14 200.039 246.192C202.397 247.244 204.015 249.473 204.283 252.041C206.232 256.303 206.143 256.106 207.462 258.991C208.781 261.876 209.951 264.433 211.06 266.859C212.576 270.805 213.794 274.859 214.704 278.987C215.084 282.833 214.938 286.714 214.271 290.521C212.707 295.517 211.907 300.721 211.897 305.957C212.386 308.331 213.174 310.635 214.24 312.813C215.165 314.853 216.357 316.76 217.785 318.485C215.234 319.994 212.531 321.231 209.721 322.173C206.984 322.949 201.498 319.275 199.926 318.091C199.118 317.439 198.011 317.3 197.066 317.732C196.122 318.163 195.503 319.092 195.468 320.13C195.165 323.281 194.021 329.274 191.912 330.556C187.759 333.089 178.471 336.703 171.325 339.971C171.325 339.971 169.506 332.875 165.739 331.744C161.971 330.613 157.958 329.119 155.086 328.213L146.7 324.438Z" fill="white"/>
<path fill-rule="evenodd" clip-rule="evenodd" d="M146.7 324.438C143.785 322.917 139.301 319.18 132.573 315.043C128.779 312.814 120.292 309.165 117.118 306.732C114.996 305.341 113.552 303.127 113.136 300.625C112.229 295.92 114.96 291.275 119.513 289.781C123.17 288.922 126.998 289.156 130.523 290.453C132.945 291.273 135.294 292.294 137.547 293.504C139.196 294.335 139.698 294.74 141.568 295.708C143.437 296.676 144.914 297.824 143.304 295.865C141.346 292.797 138.041 287.649 134.677 283.242C132.115 279.894 131.649 279.394 129.573 276.935C127.497 274.475 125.958 272.325 123.637 269.502C121.414 266.702 119.34 263.787 117.423 260.77C114.712 257.028 113.357 252.475 113.58 247.861C114.886 244.658 117.986 242.553 121.444 242.52C125.308 243.332 128.824 245.326 131.505 248.225C135.143 251.638 138.307 255.523 140.911 259.778C144.959 265.855 151.369 274.498 152.335 276.435C151.225 274.009 148.427 269.105 147.837 266.6C147.197 264 147.952 261.254 149.831 259.346C151.509 257.854 153.513 256.774 155.683 256.194C157.91 255.689 160.245 256.035 162.23 257.163C165.499 260.293 168.198 263.967 170.209 268.022C168.737 264.339 167.722 260.49 167.187 256.561C167.577 254.516 168.668 252.671 170.272 251.345C172.258 249.957 174.479 248.941 176.828 248.346C178.877 248.128 180.945 248.537 182.756 249.52C185.735 252.362 188.254 255.649 190.225 259.264C190.645 260.182 189.514 256.497 189.907 253.543C189.639 250.975 190.761 248.459 192.851 246.942C194.941 245.426 197.681 245.14 200.039 246.192C202.397 247.244 204.015 249.473 204.283 252.041C206.233 256.303 206.143 256.106 207.462 258.991C208.781 261.876 209.951 264.433 211.06 266.859C212.576 270.805 213.794 274.859 214.704 278.987C215.084 282.833 214.938 286.714 214.272 290.521C212.707 295.517 211.907 300.721 211.897 305.957C212.386 308.331 213.174 310.635 214.24 312.813C215.165 314.852 216.357 316.76 217.785 318.485C215.234 319.994 212.531 321.231 209.721 322.173C206.984 322.949 201.498 319.275 199.926 318.091C199.118 317.439 198.011 317.3 197.066 317.732C196.122 318.163 195.503 319.092 195.468 320.13C195.165 323.281 194.021 329.274 191.912 330.556C187.759 333.089 178.471 336.703 171.325 339.971C171.325 339.971 169.506 332.875 165.739 331.744C161.971 330.613 157.958 329.119 155.086 328.213L146.7 324.438Z" fill="white" stroke="white" stroke-width="5" stroke-linecap="round" stroke-linejoin="round"/>
</svg>
